# xmcd
#
# Track frame offsets:
#	150
#	19286
#	38922
#	57654
#	72923
#	89683
#	103079
#	120577
#	139784
#	159210
#
# Disc length: 2347 seconds
#
# Revision: 0
# Processed by: cddbd v1.4PL0 Copyright (c) Steve Scherf et al.
# Submitted via: dBpowerAMP V4.0
#
DISCID=8b09290a
DTITLE=Travis Adkinson - Finally
DYEAR=1999
DGENRE=Country
TTITLE0=I'm Alive in Texas
TTITLE1=The Leavin' in Me
TTITLE2=My San Antonio Girl
TTITLE3=Record Low
TTITLE4=Wastin' Away in Hazard
TTITLE5=Releasin' Caroline
TTITLE6=Without Saying a Word
TTITLE7=Whiskey and Water
TTITLE8=She Takes Her Love Away
TTITLE9=Memphis Heartache
EXTD=
EXTT0=
EXTT1=
EXTT2=
EXTT3=
EXTT4=
EXTT5=
EXTT6=
EXTT7=
EXTT8=
EXTT9=
PLAYORDER=
